<svg width="189" height="42" viewBox="0 0 189 42" fill="none" xmlns="http://www.w3.org/2000/svg">
<path d="M47 13.6824C47 13.3756 47.1478 13.2216 47.4409 13.2216H53.0081C53.6366 13.2149 54.2588 13.3472 54.8303 13.6091C55.3715 13.8569 55.8593 14.2079 56.2661 14.6425C57.0806 15.5209 57.5339 16.6741 57.5356 17.872C57.5362 18.4608 57.4245 19.0442 57.2064 19.5911C56.9931 20.1343 56.6806 20.633 56.2848 21.0617C55.8828 21.493 55.4011 21.8423 54.8663 22.0902C54.3006 22.3521 53.6836 22.4845 53.0602 22.4778H49.8308V27.3456C49.8308 27.6263 49.6842 27.7667 49.3911 27.7667H47.4298C47.1441 27.7667 47 27.6263 47 27.3456V13.6824ZM54.6737 17.8621C54.6731 17.5907 54.62 17.322 54.5172 17.0709C54.4151 16.8181 54.2687 16.5855 54.085 16.384C53.8978 16.1821 53.6745 16.0169 53.4267 15.8971C53.1664 15.7718 52.8808 15.7081 52.592 15.7107H49.8333V20.0134H52.592C52.8778 20.0141 53.1602 19.9517 53.4192 19.8308C53.669 19.7167 53.8943 19.5551 54.0825 19.3551C54.2692 19.1544 54.4174 18.9212 54.5197 18.667C54.623 18.4095 54.6753 18.1345 54.6737 17.8571V17.8621Z" fill="#FC7F00"/>
<path d="M59.9552 13.6473C59.9529 13.5364 59.9914 13.4286 60.0632 13.3442C60.1039 13.3004 60.154 13.2665 60.2098 13.245C60.2655 13.2235 60.3254 13.2149 60.3849 13.22H62.3288C62.4442 13.2233 62.5546 13.2673 62.6406 13.3442C62.688 13.3811 62.7261 13.4287 62.7515 13.4831C62.777 13.5375 62.7892 13.5972 62.7872 13.6572V27.3378C62.7872 27.626 62.6344 27.7688 62.3288 27.7688H60.3849C60.0993 27.7688 59.9552 27.626 59.9552 27.3378V13.6473Z" fill="#FC7F00"/>
<path d="M65.3946 20.5133C65.393 19.8419 65.482 19.1734 65.6591 18.5259C65.8304 17.8978 66.0839 17.2952 66.4131 16.7335C66.7364 16.1775 67.1282 15.6642 67.5794 15.2057C68.0307 14.7507 68.5397 14.3569 69.0936 14.0344C69.6556 13.7084 70.2566 13.4546 70.8822 13.2792C72.1828 12.9205 73.5563 12.9205 74.8569 13.2792C75.4826 13.4546 76.0835 13.7084 76.6456 14.0344C77.7593 14.6844 78.686 15.6112 79.336 16.7248C79.6626 17.2878 79.916 17.8901 80.0899 18.5172C80.2756 19.1664 80.3709 19.8381 80.3731 20.5133C80.3759 21.185 80.2852 21.8539 80.1036 22.5006C79.9287 23.1247 79.6753 23.724 79.3497 24.2843C79.0271 24.8381 78.6333 25.3471 78.1783 25.7984C77.1337 26.8506 75.7999 27.5684 74.3464 27.8607C72.8929 28.1531 71.3853 28.0067 70.0152 27.4403C68.645 26.8738 67.4742 25.9128 66.6515 24.6794C65.8287 23.446 65.3912 21.9959 65.3946 20.5133ZM68.2266 20.4934C68.2215 21.1284 68.3432 21.758 68.5843 22.3454C69.0388 23.4715 69.9189 24.373 71.0337 24.8544C71.6134 25.1004 72.2367 25.2271 72.8665 25.2271C73.4962 25.2271 74.1195 25.1004 74.6992 24.8544C75.2508 24.6154 75.7514 24.2726 76.1736 23.8446C76.5965 23.4138 76.9311 22.9045 77.1586 22.3454C77.6355 21.1602 77.6355 19.8365 77.1586 18.6513C76.7006 17.5218 75.8174 16.6173 74.6992 16.1323C74.1193 15.8872 73.4961 15.7609 72.8665 15.7609C72.2369 15.7609 71.6137 15.8872 71.0337 16.1323C70.4839 16.3701 69.9857 16.7127 69.5668 17.1409C68.7024 18.0397 68.2225 19.2402 68.229 20.4872L68.2266 20.4934Z" fill="#FC7F00"/>
<path d="M82.946 13.6571C82.9424 13.5422 82.9828 13.4302 83.059 13.3441C83.0996 13.3012 83.1491 13.2678 83.2041 13.2464C83.2591 13.2249 83.3181 13.2158 83.377 13.2199H85.6314C85.7218 13.2197 85.8109 13.2415 85.891 13.2832C85.979 13.3322 86.0544 13.4011 86.1109 13.4844C87.2288 15.0793 88.3363 16.6622 89.4335 18.233C90.5307 19.8039 91.6383 21.3863 92.7562 22.9804V13.5888C92.7677 13.4837 92.8185 13.3869 92.8985 13.3178C92.9784 13.2487 93.0816 13.2124 93.1872 13.2161H95.0777C95.202 13.2154 95.3223 13.2595 95.4168 13.3404C95.4629 13.3781 95.4997 13.426 95.5243 13.4803C95.5488 13.5346 95.5605 13.5938 95.5584 13.6534V27.3675C95.5584 27.635 95.4047 27.7687 95.0975 27.7687H92.971C92.827 27.7687 92.6928 27.6805 92.5698 27.5041C91.4197 25.838 90.2744 24.1736 89.1342 22.5109C87.9939 20.8481 86.8541 19.1808 85.7146 17.5089V27.3377C85.7237 27.4547 85.6867 27.5706 85.6115 27.6606C85.5638 27.7011 85.5084 27.7315 85.4487 27.7501C85.3889 27.7686 85.326 27.775 85.2638 27.7687H83.377C83.3174 27.7742 83.2574 27.767 83.2009 27.7475C83.1443 27.728 83.0926 27.6967 83.0491 27.6557C82.9767 27.5699 82.9398 27.4597 82.946 27.3476V13.6571Z" fill="#FC7F00"/>
<path d="M98.7227 13.6818C98.7227 13.368 98.8663 13.2111 99.1537 13.2111H108.601C108.669 13.2045 108.737 13.214 108.8 13.2389C108.863 13.2637 108.919 13.3031 108.964 13.3539C109.039 13.4583 109.077 13.5845 109.072 13.7129V15.4444C109.072 15.5611 109.028 15.6735 108.948 15.7586C108.9 15.8077 108.841 15.8454 108.777 15.8693C108.712 15.8931 108.644 15.9024 108.575 15.8965H101.613V18.8651H106.983C107.038 18.8562 107.095 18.8591 107.149 18.8736C107.203 18.8882 107.254 18.9141 107.297 18.9496C107.34 18.9958 107.373 19.0508 107.393 19.1108C107.413 19.1708 107.42 19.2344 107.414 19.2974V21.0711C107.415 21.1833 107.381 21.293 107.316 21.3841C107.279 21.4316 107.231 21.4691 107.177 21.4932C107.122 21.5173 107.062 21.5272 107.003 21.522H101.613V25.0782H108.835C109.017 25.0782 109.139 25.1179 109.197 25.2024C109.264 25.3114 109.295 25.4387 109.286 25.5663V27.3574C109.286 27.6315 109.142 27.769 108.855 27.7698H99.1537C99.0444 27.7726 98.9375 27.738 98.8506 27.6717C98.8068 27.6329 98.7727 27.5844 98.7511 27.53C98.7295 27.4756 98.7211 27.4169 98.7264 27.3587L98.7227 13.6818Z" fill="#FC7F00"/>
<path d="M126.827 21.6836C126.821 21.5689 126.86 21.4563 126.935 21.3694C126.978 21.3282 127.028 21.2965 127.084 21.2763C127.14 21.2562 127.199 21.2481 127.258 21.2526H128.856C128.971 21.2539 129.082 21.2952 129.17 21.3694C129.217 21.4064 129.255 21.4542 129.281 21.5089C129.306 21.5635 129.318 21.6234 129.316 21.6836V26.1813C129.316 26.2603 129.296 26.338 129.258 26.4073C129.204 26.4926 129.13 26.563 129.042 26.6123H129.032C129.032 26.6123 129.032 26.6123 129.023 26.6123C128.708 26.832 128.376 27.0255 128.03 27.1911C127.672 27.3621 127.302 27.5046 126.922 27.6172C126.533 27.7322 126.137 27.8206 125.737 27.8817C125.334 27.9436 124.928 27.9747 124.521 27.9749C123.849 27.9766 123.181 27.8876 122.533 27.7103C121.906 27.5395 121.304 27.2855 120.745 26.9551C119.64 26.3011 118.718 25.3792 118.064 24.2746C117.735 23.7163 117.481 23.117 117.309 22.4922C117.043 21.5293 116.973 20.5227 117.102 19.5322C117.232 18.5416 117.559 17.5871 118.064 16.7251C118.389 16.1715 118.783 15.6611 119.235 15.206C119.687 14.7502 120.196 14.3548 120.749 14.0297C121.311 13.7006 121.912 13.4451 122.538 13.2696C123.185 13.0892 123.854 12.9985 124.526 13C124.991 13.0005 125.455 13.0421 125.913 13.1242C126.369 13.207 126.816 13.3317 127.249 13.4969C127.413 13.5627 127.607 13.6434 127.833 13.7453C128.053 13.8409 128.268 13.9491 128.475 14.0695C128.658 14.173 128.83 14.294 128.99 14.4309C129.048 14.4731 129.097 14.5272 129.134 14.5897C129.17 14.6523 129.192 14.7218 129.2 14.7936C129.188 14.8817 129.158 14.9664 129.111 15.042C129.053 15.1563 128.98 15.2905 128.892 15.4283C128.803 15.5662 128.704 15.7215 128.592 15.8743C128.48 16.027 128.374 16.1674 128.269 16.2916C128.165 16.4158 128.069 16.5177 127.985 16.5996C127.9 16.6816 127.834 16.7239 127.789 16.7239C127.74 16.722 127.693 16.7137 127.647 16.699C127.584 16.6793 127.526 16.6476 127.476 16.6059C127.048 16.3104 126.579 16.0793 126.084 15.9202C125.575 15.7535 125.042 15.6696 124.506 15.6718C123.866 15.6636 123.232 15.7882 122.644 16.0378C122.055 16.2873 121.525 16.6562 121.086 17.1213C120.227 18.0411 119.75 19.2536 119.753 20.5123C119.747 21.1569 119.874 21.7958 120.126 22.3891C120.367 22.9581 120.712 23.4768 121.144 23.9182C121.575 24.3542 122.086 24.7033 122.649 24.9466C123.227 25.1975 123.852 25.3244 124.482 25.3193C124.722 25.3192 124.961 25.3009 125.197 25.2646C125.42 25.2321 125.641 25.1864 125.858 25.128C126.047 25.0779 126.232 25.0157 126.412 24.9417C126.556 24.885 126.695 24.8164 126.827 24.7367V21.6836Z" fill="#04759C"/>
<path d="M132.355 13.6823C132.355 13.3751 132.499 13.2214 132.786 13.2214H138.783C139.42 13.2167 140.051 13.3435 140.636 13.5941C141.197 13.8333 141.707 14.1759 142.14 14.6039C142.578 15.0411 142.925 15.5605 143.161 16.1322C143.397 16.7039 143.518 17.3167 143.517 17.9352C143.519 18.3731 143.456 18.8088 143.33 19.2283C143.21 19.6326 143.035 20.0187 142.811 20.376C142.365 21.0844 141.739 21.6624 140.998 22.0516L143.547 27.0784C143.56 27.1466 143.583 27.2126 143.615 27.2747C143.647 27.3387 143.663 27.4093 143.663 27.4809C143.663 27.6759 143.549 27.774 143.32 27.774H141.047C140.939 27.7783 140.832 27.7444 140.746 27.6781C140.66 27.6118 140.6 27.5174 140.577 27.4113L138.205 22.7074C138.101 22.7074 137.988 22.7074 137.868 22.7074C137.747 22.7074 137.579 22.7074 137.371 22.7074H135.211V27.3455C135.211 27.6262 135.06 27.7665 134.76 27.7665H132.79C132.676 27.7727 132.565 27.7359 132.477 27.6634C132.434 27.6231 132.4 27.5735 132.379 27.5185C132.357 27.4635 132.348 27.4044 132.353 27.3455L132.355 13.6823ZM140.615 17.9452C140.615 17.6657 140.562 17.3887 140.459 17.1291C140.355 16.8682 140.206 16.6279 140.018 16.4199C139.826 16.2096 139.596 16.0369 139.341 15.9106C139.075 15.7796 138.785 15.7032 138.489 15.6858L137.817 15.6709C137.598 15.6709 137.371 15.6709 137.136 15.6709H135.206V20.217H138.159C138.274 20.217 138.397 20.2108 138.532 20.1984C138.826 20.1818 139.114 20.1084 139.38 19.9822C139.632 19.8626 139.857 19.6937 140.041 19.4854C140.225 19.2783 140.37 19.0397 140.469 18.7811C140.568 18.5138 140.618 18.2305 140.615 17.9452Z" fill="#04759C"/>
<path d="M145.408 20.5134C145.407 19.842 145.496 19.1735 145.673 18.526C145.844 17.8979 146.098 17.2953 146.427 16.7336C146.752 16.18 147.145 15.6697 147.598 15.2145C148.049 14.7595 148.558 14.3657 149.112 14.0432C149.674 13.7172 150.275 13.4634 150.901 13.288C152.201 12.9293 153.575 12.9293 154.876 13.288C155.501 13.4634 156.102 13.7172 156.664 14.0432C157.778 14.6932 158.705 15.6199 159.355 16.7336C159.681 17.2968 159.934 17.8991 160.109 18.526C160.29 19.177 160.381 19.85 160.378 20.5258C160.381 21.1975 160.29 21.8664 160.109 22.5132C159.933 23.137 159.68 23.7363 159.355 24.2968C159.032 24.8506 158.638 25.3596 158.183 25.811C157.138 26.8608 155.803 27.5763 154.35 27.8665C152.897 28.1567 151.39 28.0086 150.021 27.441C148.653 26.8733 147.483 25.9118 146.662 24.6783C145.841 23.4449 145.404 21.9952 145.408 20.5134ZM148.24 20.4935C148.235 21.1285 148.357 21.7581 148.598 22.3455C149.054 23.4694 149.935 24.3686 151.049 24.8483C151.628 25.0943 152.252 25.221 152.881 25.221C153.511 25.221 154.134 25.0943 154.714 24.8483C155.266 24.6093 155.766 24.2665 156.189 23.8385C156.611 23.4077 156.946 22.8984 157.174 22.3393C157.65 21.1541 157.65 19.8304 157.174 18.6452C156.715 17.5157 155.832 16.6112 154.714 16.1262C154.134 15.8811 153.511 15.7548 152.881 15.7548C152.252 15.7548 151.629 15.8811 151.049 16.1262C150.497 16.3656 149.998 16.7103 149.579 17.141C148.715 18.0398 148.235 19.2403 148.241 20.4873L148.24 20.4935Z" fill="#04759C"/>
<path d="M165.675 21.8605C165.667 22.3635 165.747 22.8641 165.911 23.3398C166.051 23.7542 166.276 24.1348 166.572 24.4577C166.856 24.7615 167.205 24.999 167.591 25.1533C168.459 25.478 169.416 25.4727 170.281 25.1384C170.672 24.9781 171.022 24.7319 171.305 24.418C171.591 24.0921 171.808 23.7118 171.942 23.3001C172.094 22.8366 172.168 22.3516 172.162 21.8642V13.6476C172.161 13.5913 172.172 13.5354 172.193 13.4833C172.215 13.4312 172.246 13.384 172.287 13.3446C172.329 13.3029 172.38 13.2704 172.435 13.249C172.491 13.2277 172.55 13.2179 172.609 13.2204H174.504C174.631 13.2159 174.755 13.2603 174.85 13.3446C174.895 13.3816 174.93 13.428 174.955 13.4804C174.979 13.5327 174.992 13.5898 174.992 13.6476V21.9698C175.012 22.8775 174.845 23.7797 174.502 24.6204C174.209 25.3288 173.766 25.9651 173.203 26.4853C172.64 27.0056 171.971 27.3974 171.242 27.6338C170.487 27.8849 169.697 28.0108 168.902 28.0064C168.105 28.0105 167.313 27.876 166.562 27.6089C165.844 27.356 165.184 26.9611 164.623 26.4476C164.053 25.9175 163.603 25.2727 163.301 24.5558C162.961 23.7368 162.795 22.8563 162.812 21.9698V13.6476C162.813 13.5397 162.853 13.4358 162.924 13.3545C162.958 13.3106 163.002 13.2753 163.052 13.2513C163.102 13.2274 163.157 13.2155 163.213 13.2166H165.21C165.323 13.2216 165.43 13.2655 165.513 13.3408C165.561 13.3757 165.6 13.4212 165.627 13.4738C165.655 13.5265 165.669 13.5847 165.67 13.6439L165.675 21.8605Z" fill="#04759C"/>
<path d="M177.814 13.6824C177.814 13.3756 177.962 13.2216 178.255 13.2216H183.823C184.451 13.2149 185.073 13.3472 185.645 13.6091C186.186 13.8573 186.673 14.2083 187.081 14.6425C187.895 15.5209 188.348 16.6741 188.35 17.872C188.351 18.4608 188.239 19.0442 188.021 19.5911C187.808 20.1346 187.495 20.6333 187.098 21.0617C186.697 21.4933 186.215 21.8426 185.681 22.0902C185.115 22.352 184.498 22.4844 183.875 22.4778H180.645V27.3456C180.645 27.6263 180.499 27.7667 180.207 27.7667H178.25C177.965 27.7667 177.821 27.6263 177.821 27.3456L177.814 13.6824ZM185.488 17.8621C185.488 17.5906 185.434 17.3218 185.33 17.0709C185.229 16.8176 185.083 16.5848 184.898 16.384C184.712 16.1818 184.489 16.0166 184.241 15.8971C183.981 15.7718 183.695 15.7081 183.406 15.7107H180.646V20.0134H183.406C183.691 20.0152 183.973 19.9546 184.231 19.8358C184.481 19.7219 184.706 19.5603 184.893 19.3601C185.081 19.1601 185.229 18.9267 185.33 18.6719C185.436 18.4134 185.49 18.1365 185.488 17.8571V17.8621Z" fill="#04759C"/>
<path d="M25.4256 25.2792V4.36839L18.042 0L0.107499 10.0805V18.0863L18.312 7.85262V21.0666L7.00609 27.4949V18.5767L0 22.6804V31.0988L7.27617 35.361L25.4256 25.2792Z" fill="url(#paint0_linear_22_453)"/>
<path d="M28.6481 16.4132L28.5433 27.0984L28.4116 27.175L10.7109 37.3939L18.0462 41.7139L35.8745 31.3136V20.5276L28.6481 16.4132Z" fill="url(#paint1_linear_22_453)"/>
<path d="M14.7429 14.0493L10.4336 16.5271V14.697L14.7429 12.2192V14.0493Z" fill="url(#paint2_linear_22_453)"/>
<path d="M14.7429 17.2814L10.4336 19.7592V17.9277L14.7429 15.4512V17.2814Z" fill="url(#paint3_linear_22_453)"/>
<path d="M14.7429 20.8368L10.4336 23.3132V21.4831L14.7429 19.0053V20.8368Z" fill="url(#paint4_linear_22_453)"/>
<path d="M28.5469 5.51379V11.6411L35.8741 15.9316V9.7626L28.5469 5.51379Z" fill="#FC7F00"/>
<defs>
<linearGradient id="paint0_linear_22_453" x1="3.82957" y1="35.0479" x2="18.5848" y2="6.37454" gradientUnits="userSpaceOnUse">
<stop stop-color="#04759C"/>
<stop offset="1" stop-color="#16B1D7"/>
</linearGradient>
<linearGradient id="paint1_linear_22_453" x1="18.9358" y1="42.8211" x2="33.691" y2="14.1464" gradientUnits="userSpaceOnUse">
<stop stop-color="#04759C"/>
<stop offset="1" stop-color="#16B1D7"/>
</linearGradient>
<linearGradient id="paint2_linear_22_453" x1="2.34313" y1="34.2842" x2="17.0984" y2="5.60948" gradientUnits="userSpaceOnUse">
<stop stop-color="#04759C"/>
<stop offset="1" stop-color="#16B1D7"/>
</linearGradient>
<linearGradient id="paint3_linear_22_453" x1="3.65862" y1="34.9605" x2="18.4125" y2="6.28581" gradientUnits="userSpaceOnUse">
<stop stop-color="#04759C"/>
<stop offset="1" stop-color="#16B1D7"/>
</linearGradient>
<linearGradient id="paint4_linear_22_453" x1="5.10445" y1="35.7049" x2="19.8597" y2="7.03019" gradientUnits="userSpaceOnUse">
<stop stop-color="#04759C"/>
<stop offset="1" stop-color="#16B1D7"/>
</linearGradient>
</defs>
</svg>
